<?xml version="1.0" encoding="utf-8"?>
<!-- Generator: Adobe Illustrator 15.0.0, SVG Export Plug-In . SVG Version: 6.00 Build 0)  -->
<!DOCTYPE svg PUBLIC "-//W3C//DTD SVG 1.1//EN" "http://www.w3.org/Graphics/SVG/1.1/DTD/svg11.dtd">
<svg version="1.1" id="Calque_1" xmlns="http://www.w3.org/2000/svg" xmlns:xlink="http://www.w3.org/1999/xlink" x="0px" y="0px"
	 width="512px" height="512px" viewBox="0 0 512 512" enable-background="new 0 0 512 512" xml:space="preserve">
<g>
	<path fill="#FFFFFF" d="M0.663,289.803l6.23-11.002c1.061-1.723,3.58-1.457,4.507-0.795c0.531,0.266,10.075,7.291,18.824,7.291
		c5.303,0,9.147-3.314,9.147-7.953c0-5.568-4.64-9.811-13.654-13.391C14.317,259.447,0,250.565,0,234.657
		c0-13.124,10.207-26.38,30.622-26.38c13.787,0,24.392,7.026,28.369,9.942c1.591,0.928,1.326,3.314,0.796,4.242l-6.761,10.207
		c-0.928,1.458-3.314,2.651-4.507,1.724c-1.193-0.663-10.871-7.954-18.957-7.954c-4.772,0-8.352,3.181-8.352,6.76
		c0,4.905,3.977,8.617,14.449,12.859c10.34,4.109,26.778,12.196,26.778,30.226c0,13.654-11.798,27.439-31.285,27.439
		c-17.233,0-26.778-7.158-29.827-10.207C0,292.189-0.398,291.66,0.663,289.803z"/>
	<path fill="#FFFFFF" d="M85.241,212.121c0-1.326,1.193-2.519,2.519-2.519h16.306c1.458,0,2.519,1.193,2.519,2.519v53.688
		c0,9.281,6.894,16.705,16.306,16.705c9.544,0,16.57-7.424,16.57-16.705v-53.688c0-1.326,1.061-2.519,2.519-2.519h16.306
		c1.326,0,2.519,1.193,2.519,2.519v54.75c0,20.148-16.968,36.852-37.913,36.852c-20.813,0-37.648-16.703-37.648-36.852v-54.75
		H85.241z"/>
	<path fill="#FFFFFF" d="M190.104,212.121c0-1.326,1.061-2.519,2.519-2.519h30.888c15.643,0,28.501,10.738,28.501,24.657
		c0,10.207-9.147,17.631-15.377,20.945c7.026,2.917,17.763,9.413,17.763,21.608c0,14.848-13.124,25.586-28.898,25.586h-32.876
		c-1.458,0-2.519-1.195-2.519-2.521L190.104,212.121L190.104,212.121z M221.124,247.251c5.037,0,9.279-4.242,9.279-9.544
		c0-5.303-4.242-9.015-9.279-9.015h-10.34v18.559H221.124z M222.847,283.441c5.17,0,9.545-4.242,9.545-9.678
		c0-5.304-5.7-9.279-10.87-9.279h-10.738v18.957H222.847z"/>
	<path fill="#FFFFFF" d="M279.191,212.121c0-1.326,1.061-2.519,2.52-2.519h30.887c15.644,0,28.502,10.738,28.502,24.657
		c0,10.207-9.146,17.631-15.378,20.945c7.026,2.917,17.766,9.413,17.766,21.608c0,14.848-13.125,25.586-28.9,25.586h-32.875
		c-1.459,0-2.521-1.195-2.521-2.521V212.121L279.191,212.121z M310.212,247.251c5.038,0,9.279-4.242,9.279-9.544
		c0-5.303-4.241-9.015-9.279-9.015h-10.34v18.559H310.212z M311.936,283.441c5.171,0,9.545-4.242,9.545-9.678
		c0-5.304-5.7-9.279-10.87-9.279h-10.737v18.957H311.936z"/>
	<path fill="#FFFFFF" d="M368.279,212.121c0-1.326,1.06-2.519,2.519-2.519h15.775c1.325,0,2.518,1.193,2.518,2.519v70.789h31.551
		c1.458,0,2.521,1.193,2.521,2.52v14.449c0,1.324-1.062,2.52-2.521,2.52h-49.844c-1.459,0-2.519-1.194-2.519-2.52V212.121z"/>
	<path fill="#FFFFFF" d="M461.076,257.723l-29.297-44.274c-1.062-1.724,0-3.845,2.122-3.845h17.231c1.062,0,1.725,0.663,2.121,1.193
		l18.427,27.176l18.428-27.176c0.396-0.53,0.928-1.193,2.12-1.193h17.232c2.122,0,3.183,2.121,2.122,3.845l-29.694,44.144v42.288
		c0,1.324-1.192,2.521-2.52,2.521h-15.774c-1.459,0-2.52-1.195-2.52-2.521L461.076,257.723L461.076,257.723z"/>
</g>
</svg>
