<?xml version="1.0" encoding="utf-8"?>
<!-- Generator: Adobe Illustrator 16.0.0, SVG Export Plug-In . SVG Version: 6.00 Build 0)  -->
<!DOCTYPE svg PUBLIC "-//W3C//DTD SVG 1.1//EN" "http://www.w3.org/Graphics/SVG/1.1/DTD/svg11.dtd">
<svg version="1.1" id="Calque_1" xmlns="http://www.w3.org/2000/svg" xmlns:xlink="http://www.w3.org/1999/xlink" x="0px" y="0px"
	 width="512px" height="512px" viewBox="0 0 512 512" enable-background="new 0 0 512 512" xml:space="preserve">
<path d="M480,64H32C14.312,64,0,78.328,0,96v57.047V416c0,17.672,14.312,32,32,32h448c17.688,0,32-14.328,32-32V153.047V96
	C512,78.328,497.688,64,480,64z M435.781,128L256,250.609L76.219,128H435.781z M448,368c0,8.844-7.156,16-16,16H80
	c-8.844,0-16-7.156-16-16V196.406l175.906,119.141C244.875,318.516,250.438,320,256,320s11.125-1.484,16.094-4.453L448,196.406V368z
	"/>
</svg>
