<?xml version="1.0" encoding="utf-8"?>
<!-- Generator: Adobe Illustrator 16.0.0, SVG Export Plug-In . SVG Version: 6.00 Build 0)  -->
<!DOCTYPE svg PUBLIC "-//W3C//DTD SVG 1.1//EN" "http://www.w3.org/Graphics/SVG/1.1/DTD/svg11.dtd">
<svg version="1.1" id="Calque_1" xmlns="http://www.w3.org/2000/svg" xmlns:xlink="http://www.w3.org/1999/xlink" x="0px" y="0px"
	 width="512px" height="512px" viewBox="0 0 512 512" enable-background="new 0 0 512 512" xml:space="preserve">
<g>
	<g>
		<path d="M483.555,85.333H369.777V56.889c0-15.708-12.723-28.444-28.444-28.444H170.667c-15.722,0-28.444,12.736-28.444,28.444
			v28.445H28.444C12.722,85.333,0,98.069,0,113.778v227.556c0,15.707,12.722,28.443,28.444,28.443h56.889v85.334
			c0,15.708,12.722,28.444,28.445,28.444h284.445c15.722,0,28.443-12.736,28.443-28.444v-85.334h56.889
			c15.723,0,28.445-12.736,28.445-28.443V113.778C512,98.069,499.277,85.333,483.555,85.333z M369.777,426.666H142.222V312.889
			h227.555V426.666z M455.111,298.666c0,7.861-6.361,14.223-14.223,14.223h-14.223v-28.444c0-15.708-12.722-28.444-28.443-28.444
			H113.778c-15.723,0-28.445,12.736-28.445,28.444v28.444H71.111c-7.861,0-14.222-6.361-14.222-14.223V156.444
			c0-7.847,6.361-14.222,14.222-14.222h369.778c7.861,0,14.223,6.375,14.223,14.222V298.666z"/>
	</g>
</g>
</svg>
