<?xml version="1.0" encoding="utf-8"?>
<!-- Generator: Adobe Illustrator 16.0.0, SVG Export Plug-In . SVG Version: 6.00 Build 0)  -->
<!DOCTYPE svg PUBLIC "-//W3C//DTD SVG 1.1//EN" "http://www.w3.org/Graphics/SVG/1.1/DTD/svg11.dtd">
<svg version="1.1" id="Calque_1" xmlns="http://www.w3.org/2000/svg" xmlns:xlink="http://www.w3.org/1999/xlink" x="0px" y="0px"
	 width="512px" height="512px" viewBox="0 0 512 512" enable-background="new 0 0 512 512" xml:space="preserve">
<path d="M501.256,448.969L398.527,345.875c25.524-35.844,40.696-79.577,40.696-126.937C439.224,97.735,340.907-0.5,219.597-0.5
	C98.318-0.5,0,97.735,0,218.938c0,121.187,98.318,219.437,219.596,219.437c47.423,0,91.186-15.188,127.066-40.688L449.421,500.75
	c7.164,7.188,16.549,10.75,25.934,10.75c9.384,0,18.769-3.562,25.901-10.75C515.582,486.469,515.582,463.25,501.256,448.969z
	 M219.413,365.078C138.551,365.078,73,299.582,73,218.789C73,137.996,138.551,72.5,219.413,72.5
	c80.861,0,146.413,65.496,146.413,146.289C365.826,299.582,300.274,365.078,219.413,365.078z"/>
</svg>
