<?xml version="1.0" encoding="utf-8"?>
<!-- Generator: Adobe Illustrator 16.0.0, SVG Export Plug-In . SVG Version: 6.00 Build 0)  -->
<!DOCTYPE svg PUBLIC "-//W3C//DTD SVG 1.1//EN" "http://www.w3.org/Graphics/SVG/1.1/DTD/svg11.dtd">
<svg version="1.1" id="Calque_1" xmlns="http://www.w3.org/2000/svg" xmlns:xlink="http://www.w3.org/1999/xlink" x="0px" y="0px"
	 width="512px" height="512px" viewBox="0 0 512 512" enable-background="new 0 0 512 512" xml:space="preserve">
<g>
	<g>
		<path fill-rule="evenodd" clip-rule="evenodd" d="M288,384h64V224h-64V384z M160,384h64V224h-64V384z M352,96V64
			c0-35.344-28.656-64-64-64h-64c-35.344,0-64,28.656-64,64v32H0v32c0,17.672,14.312,32,32,32v288c0,35.344,28.656,64,64,64h320
			c35.344,0,64-28.656,64-64V160c17.688,0,32-14.328,32-32V96H352z M224,64h64v32h-64V64z M416,416c0,17.688-14.312,32-32,32H128
			c-17.688,0-32-14.312-32-32V192c0-17.672,14.312-32,32-32h256c17.688,0,32,14.328,32,32V416z"/>
	</g>
</g>
</svg>
